<?xml version="1.0" encoding="UTF-8" standalone="no"?>
<svg width="22px" height="22px" viewBox="0 0 22 22" version="1.1" xmlns="http://www.w3.org/2000/svg" xmlns:xlink="http://www.w3.org/1999/xlink" xmlns:sketch="http://www.bohemiancoding.com/sketch/ns">
    <!-- Generator: Sketch 3.4.4 (17249) - http://www.bohemiancoding.com/sketch -->
    <title>linkedin</title>
    <desc>Created with Sketch.</desc>
    <defs></defs>
    <g id="Welcome" stroke="none" stroke-width="1" fill="none" fill-rule="evenodd" sketch:type="MSPage">
        <g id="Desktop" sketch:type="MSArtboardGroup" transform="translate(-546.000000, -403.000000)" fill="#FFFFFF">
            <g id="Social" sketch:type="MSLayerGroup" transform="translate(457.000000, 401.000000)">
                <path d="M109.385833,2.08333333 L90.7863972,2.08333333 C89.8983115,2.08333333 89.1764271,2.78924991 89.1764271,3.66091805 L89.1764271,22.3807486 C89.1764271,23.2515754 89.8983115,23.9591747 90.7863972,23.9591747 L109.385833,23.9591747 C110.275597,23.9591747 111,23.2515754 111,22.3807486 L111,3.66091805 C111,2.78924991 110.275597,2.08333333 109.385833,2.08333333 L109.385833,2.08333333 Z M92.534029,10.4971185 L95.8916309,10.4971185 L95.8916309,20.5936607 L92.534029,20.5936607 L92.534029,10.4971185 Z M94.2136693,9.15091286 C93.0981061,9.15091286 92.1982688,8.24643095 92.1982688,7.13160442 C92.1982688,6.01677789 93.0981061,5.11229599 94.2136693,5.11229599 C95.3250355,5.11229599 96.227391,6.01677789 96.227391,7.13160442 C96.227391,8.24643095 95.3250355,9.15091286 94.2136693,9.15091286 L94.2136693,9.15091286 Z M107.643238,20.5936607 L104.285636,20.5936607 L104.285636,15.5453896 C104.285636,14.1781495 103.917978,12.8790611 102.606835,12.8790611 C101.294852,12.8790611 100.928034,14.1983426 100.928034,15.5605344 L100.928034,20.5936607 L97.5704318,20.5936607 L97.5704318,10.4971185 L100.928034,10.4971185 L100.928034,11.7112277 L101.095914,11.7112277 C101.527366,10.8908836 102.606835,10.1933808 103.890278,10.1933808 C106.987666,10.1933808 107.643238,12.2328824 107.643238,14.7040111 L107.643238,20.5936607 L107.643238,20.5936607 Z" id="linkedin" sketch:type="MSShapeGroup"></path>
            </g>
        </g>
    </g>
</svg>