<?xml version="1.0" encoding="UTF-8" standalone="no"?>
<svg width="25px" height="21px" viewBox="0 0 25 21" version="1.1" xmlns="http://www.w3.org/2000/svg" xmlns:xlink="http://www.w3.org/1999/xlink" xmlns:sketch="http://www.bohemiancoding.com/sketch/ns">
    <!-- Generator: Sketch 3.4.4 (17249) - http://www.bohemiancoding.com/sketch -->
    <title>twitter</title>
    <desc>Created with Sketch.</desc>
    <defs></defs>
    <g id="Welcome" stroke="none" stroke-width="1" fill="none" fill-rule="evenodd" sketch:type="MSPage">
        <g id="Desktop" sketch:type="MSArtboardGroup" transform="translate(-457.000000, -404.000000)" fill="#FFFFFF">
            <g id="Social" sketch:type="MSLayerGroup" transform="translate(457.000000, 401.000000)">
                <path d="M24.5255395,5.49548217 C23.6208203,5.89639705 22.654567,6.16728549 21.6359264,6.29231092 C22.6753556,5.66718376 23.4753003,4.67698235 23.8494948,3.50007629 C22.8774206,4.07852729 21.802235,4.50027974 20.6538737,4.72449201 C19.7333552,3.73929162 18.4236744,3.125 16.9792836,3.125 C14.1986027,3.125 11.9484464,5.38545979 11.9484464,8.1726934 C11.9484464,8.56860726 11.9900235,8.95451909 12.0781671,9.32459437 C7.89467255,9.11621865 4.18349458,7.10497622 1.70466386,4.04685418 C1.27309287,4.79200575 1.02362986,5.66218274 1.02362986,6.58403692 C1.02362986,8.33439296 1.91753896,9.88137429 3.2687969,10.7882254 C2.43725355,10.7673878 1.65809744,10.5381746 0.982052694,10.1572637 L0.982052694,10.22061 C0.982052694,12.6686079 2.7183152,14.7056889 5.02002719,15.1691165 C4.59926626,15.2833064 4.15272748,15.3458191 3.69537864,15.3458191 C3.37273982,15.3458191 3.0559218,15.3149795 2.74908231,15.2524668 C3.38853914,17.2578747 5.24953316,18.7165047 7.45312303,18.7581799 C5.73265984,20.1126221 3.55983707,20.9202863 1.20074859,20.9202863 C0.794955441,20.9202863 0.39498309,20.8944477 0,20.8477716 C2.2193892,22.2955661 4.86452859,23.1290689 7.70175449,23.1290689 C16.9684736,23.1290689 22.0309095,15.4350039 22.0309095,8.76114643 C22.0309095,8.54276867 22.0250887,8.32355742 22.0151101,8.11018068 C22.9971628,7.39670222 23.8494948,6.51152217 24.5255395,5.49548217" id="twitter" sketch:type="MSShapeGroup"></path>
            </g>
        </g>
    </g>
</svg>